<svg width="447" height="304" viewBox="0 0 447 304" fill="none" xmlns="http://www.w3.org/2000/svg">
<defs>
  <style>
    .reel-left {
      transform-origin: 128px 140px;
      animation: rotate-left 3s linear infinite;
    }
    .reel-right {
      transform-origin: 318px 140px;
      animation: rotate-right 3s linear infinite;
    }
    .reel-left.paused,
    .reel-right.paused {
      animation-play-state: paused;
    }
    @keyframes rotate-left {
      from { transform: rotate(0deg); }
      to { transform: rotate(360deg); }
    }
    @keyframes rotate-right {
      from { transform: rotate(0deg); }
      to { transform: rotate(-360deg); }
    }
  </style>
</defs>
<path d="M22.9966 0.354089C24.3707 0.154401 25.889 0.193771 27.2816 0.18674L295.715 0.202211L381.958 0.20573L408.906 0.200809C413.828 0.200575 418.956 -0.093806 423.85 0.380803C428.024 0.786272 431.931 2.61252 434.922 5.55346C437.973 8.61276 439.703 12.4525 440.315 16.7001C441.217 22.9591 440.709 29.7742 440.702 36.1047L440.697 70.7749L440.706 191.503C442.877 192.909 444.606 194.594 446.397 196.453L446.355 248.133L446.418 259.423C446.432 261.605 446.652 264.033 446.209 266.18C445.567 269.283 443.162 271.022 440.666 272.623C440.732 279.771 441.592 287.409 437.704 293.798C434.545 298.99 429.808 301.692 424.028 303.07C422.123 303.469 420.191 303.518 418.253 303.537L156.26 303.523H66.7002L38.7234 303.52C34.0891 303.52 29.1801 303.846 24.5704 303.422C20.1632 303.016 15.6993 301.151 12.5472 298.01C5.56595 291.049 6.50101 281.925 6.4689 272.873C4.0235 271.469 2.16929 269.967 0.369385 267.797L0.376158 195.663C2.17738 193.547 4.4293 191.911 6.42638 189.987L6.40881 73.6853L6.40824 36.9698C6.40803 30.6042 5.97629 23.8666 6.58702 17.5361C6.91562 14.129 7.83296 10.9371 9.83851 8.13182C13.0734 3.60745 17.5731 1.21987 22.9966 0.354089Z" fill="#0B1316"/>
<path d="M26.8856 4.14839C27.5496 4.02886 28.2216 4.01785 28.8944 3.99675C37.0971 3.73777 45.3942 3.98105 53.6041 3.98128L102.112 3.98269L248.481 3.97801L361.024 3.98035L397.291 3.97801C404.631 3.97308 412.028 3.75629 419.357 4.15449C423.201 4.36308 428.831 4.76832 431.706 7.61738C432.679 8.57996 434.05 10.8822 434.17 12.2514C434.388 14.7801 434.123 17.7053 434.071 20.2628C433.98 24.9518 433.945 29.6416 433.961 34.3317L433.952 88.5764L433.966 202.102C433.963 225.771 433.614 249.495 433.959 273.157C434.008 276.584 434.313 280.005 434.395 283.432C434.479 287.025 433.98 289.793 431.322 292.458C429.529 294.227 427.272 295.453 424.811 295.997C419.474 297.183 410.219 296.665 404.554 296.651L375.625 296.679C375.428 287.981 372.456 279.274 370.649 270.797C369.48 265.078 367.956 259.378 366.663 253.68C365.163 247.073 363.665 239.072 361.305 232.786C360.182 229.8 358.075 227.822 355.174 226.552C352.785 225.504 350.252 225.204 347.666 225.117C335.059 224.691 322.328 225.075 309.705 225.077L237.958 225.061L153.529 225.052C138.132 225.047 122.661 224.754 107.272 225.122C103.332 225.216 94.3326 225.035 91.0172 226.42C88.6994 227.386 87.1931 228.602 86.0552 230.836C83.5587 235.734 81.5508 247.903 80.1626 253.98C77.7912 264.361 75.1648 274.713 73.0596 285.152C72.326 288.79 72.4474 292.905 70.9795 296.327C70.939 296.423 70.8966 296.515 70.8551 296.609C62.8687 297 54.7242 296.662 46.7177 296.667C41.3754 296.705 36.0328 296.707 30.6905 296.674C27.4997 296.679 23.6376 297.141 20.5469 296.259C16.0772 294.984 14.7764 290.759 13.114 290.262L13.3228 291.513L13.0444 291.431L13.3237 291.516C13.1318 291.434 13.0692 291.422 12.8923 291.262C10.5607 289.16 10.425 285.037 10.3919 282.143C10.1733 263.051 10.3926 243.935 10.3922 224.843L10.3866 109.725L10.3826 47.8469L10.376 27.9257C10.3758 24.3236 10.1941 20.6104 10.4676 17.0224C10.6577 14.5331 12.2093 9.83879 14.0011 8.09433C17.3519 4.83207 22.429 4.11816 26.8856 4.14839Z" fill="#262829"/>
<path d="M48.962 21.669C49.236 21.6522 49.5104 21.6383 49.7847 21.628C58.6562 21.3594 67.6461 21.6721 76.5311 21.6814L128.379 21.6606L295.359 21.654L368.605 21.665L388.37 21.6348C391.647 21.6306 395.462 21.2556 398.671 21.8579C401.376 22.3656 404.929 23.7168 406.225 26.3047C406.858 27.5673 407.221 28.9708 408.053 30.13C409.307 31.8791 411.262 33.1635 412.802 34.6621C415.987 37.7668 416.031 42.2314 416.073 46.4005L416.071 154.915L416.064 188.836C416.064 194.449 416.57 200.534 415.891 206.088C415.466 209.569 413.891 213.579 411.381 216.059C407.465 219.928 402.466 219.464 397.431 219.429L154.85 219.141L77.4892 219.415L55.9396 219.429C51.9088 219.438 47.6617 219.706 43.6527 219.3C39.6536 218.897 35.5928 216.089 32.3851 213.844C30.7361 212.691 29.9844 210.638 29.7322 208.711C29.4264 206.374 29.6052 203.852 29.608 201.495L29.6125 189.007L29.6153 145.917L29.6158 76.5911L29.6066 54.205C29.6061 50.0361 29.4381 45.7761 29.6861 41.6179C29.849 38.8881 30.1567 36.3435 31.8615 34.1155C33.4508 32.0385 35.7742 30.6154 37.7629 28.9539C41.5051 25.8271 43.738 22.3424 48.962 21.669Z" fill="#0B1316"/>
<path d="M50.2319 28.0328C50.8288 28.0082 51.426 27.9929 52.0234 27.9871L283.696 27.9925L359.207 27.9979L382.701 27.9772C387.055 27.9718 391.572 27.7314 395.905 28.1326C398.795 28.4003 400.687 29.8272 402.674 31.8161C404.938 34.0797 410.155 38.646 410.76 41.6366C411.477 45.1717 411.002 51.8204 410.997 55.679L410.983 85.7263L410.997 205.005C410.992 207.895 410.854 210.609 408.627 212.728C405.43 215.77 401.423 215.951 397.293 215.901L161.72 215.897L84.1649 215.899L59.1236 215.916C54.6126 215.92 50.0491 216.07 45.5444 215.866C44.0451 215.798 42.8052 215.468 41.4571 214.816C39.2261 213.743 37.2224 212.161 36.4942 209.681C35.7482 207.145 36.2207 199.359 36.2219 196.423L36.235 167.548L36.2568 85.5144C36.2596 72.0796 35.9812 58.5948 36.2437 45.1672C36.2788 43.3633 36.3712 41.4636 37.277 39.857C38.1864 38.2443 45.6201 30.8174 47.3411 29.4707C48.258 28.753 49.1092 28.3274 50.2319 28.0328Z" fill="#FFEEDC"/>
<path d="M36.0131 112.781C36.1427 112.714 36.2724 112.671 36.4021 112.653L71.9608 112.633L88.7381 112.648C91.3454 112.657 93.9648 111.936 96.57 112.58C96.7081 112.615 96.8063 112.453 96.9062 113.773C96.9067 115.315 96.8834 115.876 96.8184 117.133C95.2773 117.508 93.7314 117.16 92.19 117.157L83.1143 117.146L49.2032 118.011C47.9611 118.188 36.191 118.836 36.0379 117.952C36.0106 117.795 35.9954 117.397 35.9741 117.119C35.9594 115.374 35.9758 114.42 36.0131 112.781Z" fill="#FF5843"/>
<path d="M36.0131 138.563C36.1427 138.495 36.2724 138.452 36.4021 138.435L71.9608 138.415L88.7381 138.429C91.3454 138.439 93.9648 137.718 96.57 138.361C96.7081 138.396 96.8063 138.235 96.9062 139.554C96.9067 141.096 96.8834 141.658 96.8184 142.914C95.2773 143.289 93.7314 142.941 92.19 142.938L83.1143 142.928L49.2032 143.792C47.9611 143.969 36.191 144.618 36.0379 143.733C36.0106 143.576 35.9954 143.178 35.9741 142.901C35.9594 141.155 35.9758 140.201 36.0131 138.563Z" fill="#4DC1C5"/>
<path d="M36.0131 162.938C36.1427 162.87 36.2724 162.827 36.4021 162.81L71.9608 162.79L88.7381 162.804C91.3454 162.814 93.9648 162.093 96.57 162.736C96.7081 162.771 96.8063 162.61 96.9062 163.929C96.9067 165.471 96.8834 166.033 96.8184 167.289C95.2773 167.664 93.7314 167.316 92.19 167.313L83.1143 167.303L49.2032 168.167C47.9611 168.344 36.191 168.993 36.0379 168.108C36.0106 167.951 35.9954 167.553 35.9741 167.276C35.9594 165.53 35.9758 164.576 36.0131 162.938Z" fill="#FE9900"/>
<path d="M350.544 112.781C350.674 112.714 350.804 112.671 350.933 112.653L386.492 112.633L403.269 112.648C405.877 112.657 408.496 111.936 411.101 112.58C411.239 112.615 411.338 112.453 411.437 113.773C411.438 115.315 411.415 115.876 411.35 117.133C409.809 117.508 408.263 117.16 406.721 117.157L397.646 117.146L363.734 118.011C362.492 118.188 350.722 118.836 350.569 117.952C350.542 117.795 350.527 117.397 350.505 117.119C350.491 115.374 350.507 114.42 350.544 112.781Z" fill="#FF5843"/>
<path d="M350.544 138.563C350.674 138.495 350.804 138.452 350.933 138.435L386.492 138.415L403.269 138.429C405.877 138.439 408.496 137.718 411.101 138.361C411.239 138.396 411.338 138.235 411.437 139.554C411.438 141.096 411.415 141.658 411.35 142.914C409.809 143.289 408.263 142.941 406.721 142.938L397.646 142.928L363.734 143.792C362.492 143.969 350.722 144.618 350.569 143.733C350.542 143.576 350.527 143.178 350.505 142.901C350.491 141.155 350.507 140.201 350.544 138.563Z" fill="#4DC1C5"/>
<path d="M350.544 162.938C350.674 162.87 350.804 162.827 350.933 162.81L386.492 162.79L403.269 162.804C405.877 162.814 408.496 162.093 411.101 162.736C411.239 162.771 411.338 162.61 411.437 163.929C411.438 165.471 411.415 166.033 411.35 167.289C409.809 167.664 408.263 167.316 406.721 167.313L397.646 167.303L363.734 168.167C362.492 168.344 350.722 168.993 350.569 168.108C350.542 167.951 350.527 167.553 350.505 167.276C350.491 165.53 350.507 164.576 350.544 162.938Z" fill="#FE9900"/>
<path d="M122.871 96.9468C126.587 96.6446 130.437 97.0421 134.172 97.0691L155.951 97.0855L231.749 97.0841L293.273 97.0874C300.379 97.0562 307.481 96.8136 314.594 96.8181C317.821 96.8202 321.126 96.707 324.339 97.0489C331.502 97.8111 338.655 100.648 344.505 104.827C354.353 111.864 360.388 122.368 362.308 134.226C364.047 145.412 361.23 156.827 354.487 165.919C347.277 175.824 337.073 181.685 325.082 183.549C319.645 183.799 314.16 183.661 308.716 183.661L280.924 183.663L195.813 183.659L146.066 183.663L131.592 183.659C128.256 183.656 124.823 183.802 121.512 183.352C113.811 182.32 106.53 179.231 100.439 174.408C91.5181 167.342 85.7949 156.999 84.5438 145.685C83.1462 133.701 86.6241 121.657 94.1951 112.263C101.374 103.394 111.602 98.1627 122.871 96.9468Z" fill="#262829"/>
<path d="M169.831 168.605C169.676 167.855 169.535 167.102 169.455 166.34C169.16 163.547 169.336 160.601 169.334 157.788L169.331 141.831L169.327 125.288C169.328 122.275 169.141 119.09 169.476 116.099C169.641 114.618 170.034 113.064 171.021 111.905C172.541 110.12 174.506 109.452 176.774 109.358C183.129 109.093 189.599 109.362 195.967 109.365L235.359 109.359L258.986 109.363C263.301 109.333 268.026 108.884 272.303 109.402C273.927 109.598 274.928 110.556 276.072 111.618C276.105 113.58 275.992 115.68 276.395 117.603C276.4 116.646 276.33 115.834 276.838 114.988C277.178 114.764 277.223 114.617 277.645 114.693C277.989 114.755 278.158 114.831 278.444 115.012C279.084 126.244 278.816 137.515 278.894 148.76C278.929 154.045 279.501 161.918 279.011 166.908C278.913 167.913 278.538 168.888 278.024 169.753C276.89 171.368 275.345 172.472 273.377 172.802C269.552 173.442 265.314 173.107 261.44 173.093L242.608 173.069H198.217C191.138 173.067 184.04 173.196 176.964 173.069C175.77 173.046 173.807 173.076 172.785 172.462C172.543 172.317 172.569 172.326 172.551 172.04C172.515 171.469 172.667 170.925 172.791 170.374C171.933 169.558 170.889 169.092 169.831 168.605Z" fill="#0B1316"/>
<path d="M276.065 166.198C276.428 166.158 276.677 166.026 276.988 166.27C277.802 166.903 277.945 168.523 278.013 169.484C278.02 169.573 278.017 169.662 278.022 169.751C276.888 171.366 275.343 172.469 273.374 172.8C269.549 173.44 265.312 173.105 261.438 173.091L242.606 173.067H198.214C191.136 173.065 184.038 173.194 176.961 173.067C175.767 173.044 173.805 173.074 172.783 172.46C172.541 172.315 172.566 172.324 172.549 172.038C172.513 171.466 172.665 170.923 172.789 170.372C177.5 171.321 182.705 170.911 187.507 170.909L208.793 170.901L248.385 170.906C255.309 170.904 262.309 171.134 269.224 170.848C270.595 170.791 271.956 170.667 273.217 170.081C274.926 169.284 275.502 167.885 276.065 166.198Z" fill="#5E5E5E"/>
<path d="M276.395 117.599C276.4 116.641 276.33 115.83 276.838 114.983C277.178 114.76 277.223 114.613 277.644 114.689C277.989 114.75 278.158 114.826 278.444 115.007C279.084 126.239 278.816 137.511 278.894 148.755C278.929 154.041 279.501 161.913 279.011 166.903C278.912 167.909 278.537 168.884 278.024 169.748C278.019 169.659 278.022 169.57 278.015 169.481C277.947 168.52 277.804 166.901 276.991 166.268C276.679 166.024 276.43 166.155 276.067 166.195C276.96 161.503 276.435 154.647 276.435 149.7L276.395 117.599Z" fill="#3B4244"/>
<path d="M202.518 114.515C204.211 114.435 205.636 114.164 207.101 115.174L207.179 114.903C208.476 116.845 209.342 119.704 210.008 121.934C213.169 132.522 212.945 142.835 210.816 153.57C209.807 158.658 208.165 163.484 205.726 168.066C204.846 168.106 203.96 168.091 203.078 168.099C196.157 167.754 189.058 168.089 182.119 168.106L175.128 168.082C176.177 165.933 177.259 163.786 178.212 161.592C183.72 148.918 184.573 133.452 179.5 120.515C178.584 118.902 178.584 116.373 177.791 114.561C186.033 114.608 194.276 114.593 202.518 114.515Z" fill="#463125"/>
<path d="M202.513 114.517C204.206 114.437 205.631 114.166 207.096 115.176L207.174 114.906C208.471 116.847 209.337 119.706 210.003 121.937C213.165 132.524 212.94 142.837 210.811 153.573C209.802 158.66 208.16 163.486 205.722 168.068C204.841 168.108 203.955 168.094 203.074 168.101C203.788 166.266 203.63 164.403 204.127 162.532C204.742 160.217 205.756 158.002 206.382 155.68C208.497 147.831 209.421 138.767 208.265 130.722C207.905 128.209 207.179 121.987 205.135 120.446C204.163 118.518 203.357 116.504 202.513 114.517Z" fill="url(#paint0_linear_154_179)"/>
<path d="M177.789 114.563C186.031 114.61 194.274 114.595 202.515 114.517C203.359 116.504 204.166 118.518 205.138 120.446C198.426 120.776 191.702 120.531 184.986 120.71C183.141 120.548 181.349 120.473 179.497 120.517C178.582 118.904 178.581 116.375 177.789 114.563Z" fill="#262829"/>
<path d="M207.177 114.908C207.222 114.892 207.267 114.876 207.311 114.859C207.591 114.749 207.716 114.683 207.99 114.614C210.459 114.002 219.859 114.428 223.026 114.427C228.454 114.424 233.997 114.15 239.408 114.385C239.807 114.402 240.034 114.507 240.376 114.694C240.119 116.217 239.23 117.529 238.595 118.92C237.7 120.88 236.901 122.92 236.458 125.034C232.223 138.197 234.618 155.904 240.822 168.07C236.465 168.225 232.066 168.101 227.701 168.103L205.724 168.07C208.162 163.488 209.805 158.662 210.814 153.575C212.942 142.839 213.167 132.526 210.006 121.939C209.34 119.708 208.473 116.849 207.177 114.908Z" fill="#DAD6CA"/>
<path d="M240.374 114.689C241.084 114.711 241.038 114.488 241.642 114.273C242.057 114.127 248.348 114.486 249.37 114.496C255.503 114.517 261.637 114.606 267.77 114.763C269.556 114.8 271.377 114.624 273.154 114.733L273.562 117.258C273.745 124.659 273.634 132.081 273.634 139.484C273.632 147.476 273.726 155.482 273.592 163.472C273.747 164.855 273.323 166.355 273.316 167.785C270.276 168.389 266.645 168.274 263.54 168.063C266.235 167.724 269.104 167.81 271.827 167.735C270.688 164.852 269.081 162.181 267.988 159.253C262.827 145.413 263.664 134.717 266.791 120.673C259.37 120.579 251.952 120.531 244.532 120.529C244.014 121.845 243.365 123.078 242.711 124.329C240.817 124.252 238.858 124.529 236.999 124.878L236.756 125.335L236.456 125.029C236.899 122.915 237.698 120.876 238.593 118.916C239.228 117.524 240.116 116.212 240.374 114.689Z" fill="url(#paint1_linear_154_179)"/>
<path d="M273.564 117.256C273.747 124.656 273.637 132.078 273.637 139.482C273.634 147.473 273.728 155.479 273.595 163.469C272.038 161.14 271.021 157.425 270.243 154.748C266.652 142.392 267.278 128.673 273.564 117.256Z" fill="#DAD6CA"/>
<path d="M172.861 117.612L172.849 117.334C172.828 116.716 172.75 116.244 173.119 115.71C174.601 116.397 176.203 121.325 176.762 122.855C181.353 135.476 180.724 149.407 175.012 161.562C174.347 162.975 173.629 164.386 172.865 165.748C172.859 164.21 172.824 162.668 172.849 161.131C172.7 146.66 172.536 132.078 172.861 117.612Z" fill="#5E5E5E"/>
<path d="M172.863 117.612L172.851 117.334C172.83 116.716 172.753 116.244 173.122 115.71C174.603 116.397 176.205 121.325 176.764 122.855C181.356 135.476 180.726 149.407 175.015 161.562C174.35 162.975 173.631 164.386 172.868 165.748C172.861 164.21 172.826 162.668 172.851 161.131C173.126 160.559 173.541 160.05 173.877 159.511C178.872 151.474 179.815 138.495 177.537 129.48C176.99 127.312 174.601 118.646 172.863 117.612Z" fill="#92938F"/>
<path d="M124.767 112.38C138.233 110.641 151.031 118.727 155.242 131.635C159.453 144.542 153.886 158.621 141.985 165.157C130.085 171.692 115.218 168.839 106.584 158.36C100.047 150.426 98.3363 139.567 102.117 130.008C105.897 120.448 114.572 113.697 124.767 112.38Z" fill="#F6F3EA"/>
<path d="M126.061 116.183C126.177 116.167 126.293 116.151 126.41 116.137C130.685 115.633 136.157 116.489 139.594 119.166C138.856 119.338 138.04 119.489 137.345 119.788C136.391 120.198 135.587 121.284 135.252 122.24C134.878 123.307 134.983 124.47 135.495 125.472C136.353 127.147 137.655 127.661 139.36 128.18C139.968 128.015 140.611 127.862 141.181 127.59C142.604 126.91 143.367 125.602 143.818 124.148C143.973 123.651 144.084 123.261 144.374 122.821C144.95 123.003 145.174 123.293 145.567 123.747C148.024 126.579 152.267 133.479 152.056 137.171C151.473 137.819 148.218 136.705 146.661 137.313C145.828 137.638 145.276 138.263 144.979 139.098C144.533 140.351 144.472 142.28 145.106 143.486C146.539 146.214 149.613 144.381 151.726 145.103C152.219 145.718 152.359 146.105 152.27 146.902C151.779 151.312 147.734 156.885 144.337 159.608C143.82 158.427 143.242 157.049 142.199 156.229C141.219 155.458 140.008 155.07 138.763 155.241C137.538 155.408 136.383 156.065 135.697 157.105C135.112 157.991 134.926 159.083 135.185 160.112C135.676 162.1 137.079 162.868 138.717 163.825C135.331 165.716 131.892 166.365 128.049 166.48C124.765 166.492 121.083 165.472 118.217 163.883C119.166 163.077 120.21 162.163 120.796 161.045C121.3 160.084 121.519 158.935 121.173 157.885C120.839 156.873 120.053 156.088 119.085 155.666C117.939 155.166 116.673 155.215 115.533 155.7C113.646 156.503 112.275 158.197 111.552 160.07C110.879 159.535 110.24 158.959 109.638 158.345C105.804 154.415 103.262 149.26 103.314 143.723C104.456 144.433 105.53 145.048 106.785 145.547C107.209 145.424 107.63 145.289 108.048 145.144C109.297 144.701 110.346 143.817 110.881 142.586C111.3 141.619 111.306 140.523 110.896 139.551C110.46 138.527 109.62 137.727 108.575 137.343C106.513 136.578 104.821 137.478 103 138.37C103.46 133.956 105.368 129.862 107.967 126.298C108.876 125.052 110.448 122.639 112.103 122.485C112.21 122.475 112.339 122.42 112.424 122.485C112.608 122.622 113.234 126.111 114.683 127.267C115.572 127.976 116.539 128.081 117.634 127.894C118.854 127.685 120.083 127.206 120.765 126.115C121.34 125.197 121.407 124.048 121.173 123.01C120.715 120.977 119.608 119.926 117.919 118.843C120.55 117.209 123.012 116.596 126.061 116.183Z" fill="#111111" class="reel-left"/>
<path d="M296.957 158.756C296.003 157.842 295.136 156.75 294.393 155.659C290.355 149.728 289.183 142.196 290.547 135.206C292.005 127.786 296.371 121.257 302.671 117.075C307.417 113.917 314.641 111.358 320.385 112.52C328.218 113.283 335.158 116.466 340.19 122.625C344.917 128.414 347.172 136.246 346.408 143.674C345.613 150.931 341.985 157.582 336.313 162.178C330.346 167.065 322.64 169.303 314.983 168.377C308.252 167.583 301.23 164.093 296.957 158.756Z" fill="#F6F3EA"/>
<path d="M300.637 121.233C301.061 121.298 301.354 121.333 301.741 121.526C299.622 123.84 297.679 126.052 296.022 128.733C296.076 128.315 296.106 128.155 295.97 127.744C295.619 128.211 295.398 128.719 294.822 128.872C296.104 125.949 298.298 123.368 300.637 121.233Z" fill="#F9F6F6"/>
<path d="M125.241 100.453C127.525 100.122 130.102 100.316 132.417 100.323L145.003 100.364L188.813 100.351L275.988 100.352L304.963 100.337C310.398 100.335 315.869 100.201 321.299 100.397C324.51 100.513 328.019 101.048 331.042 102.154C334.359 103.367 344.207 107.779 345.649 110.874C345.47 111.645 344.964 111.833 344.35 112.309L343.987 112.259C343.809 111.934 343.607 111.494 343.361 111.211C342.859 110.627 341.741 110.103 341.069 109.693C336.548 106.927 331.848 104.678 326.561 103.885C322.056 103.209 317.308 103.541 312.763 103.578L294.967 103.609L223.586 103.585L151.466 103.598C146.37 103.616 141.273 103.598 136.177 103.546C131.036 103.478 125.718 103.083 120.64 104.015C114.44 105.202 108.688 108.074 104.013 112.315C96.7012 118.833 91.5984 127.303 91.1046 137.253C90.7783 143.824 92.0461 149.72 94.6781 155.731C95.1265 156.755 95.5976 158.177 96.3593 159C96.7357 159.408 96.5756 159.15 96.7882 159.72L96.5233 159.799C93.9609 157.612 93.1256 150.116 91.293 149.075C90.9084 149.411 90.4901 149.683 90.0679 149.969C89.7541 151.618 91.5194 153.55 91.815 155.204C92.7851 160.636 98.0503 165.232 101.53 169.17L101.363 169.263C101.207 169.144 101.053 169.022 100.901 168.898C94.0938 163.284 89.584 153.58 88.6898 144.91C87.5707 134.059 89.9262 123.241 96.9637 114.711C104.445 105.643 113.771 101.593 125.241 100.453Z" fill="url(#paint2_linear_154_179)"/>
<path d="M14.4724 13.8563C15.6974 11.7376 16.7245 10.3386 18.851 9.06616C22.7899 6.70929 26.2565 6.86444 30.569 7.86569C34.2846 9.86655 36.2962 12.3034 37.8021 16.2305C38.2715 16.4694 38.3181 16.5333 38.4869 17.0635C39.1992 19.2987 38.7435 22.2992 37.6078 24.316C36.1059 26.9827 33.3456 29.2526 30.3585 29.9724C27.1525 30.7447 22.9464 30.1672 20.1396 28.3885C19.8993 28.2364 19.7165 28.0616 19.5149 27.8628L19.5745 27.455C17.5485 25.7068 15.9482 23.6208 14.2971 21.5307C14.2666 21.2433 14.2413 20.9544 14.2063 20.6673C13.9085 18.2262 14.2399 16.2641 14.4724 13.8563Z" fill="#0B1316"/>
<path d="M37.802 16.2354C38.2715 16.4742 38.3181 16.5382 38.4868 17.0683C39.1991 19.3036 38.7435 22.304 37.6077 24.3208C36.1058 26.9875 33.3456 29.2575 30.3585 29.9772C27.1525 30.7495 22.9464 30.172 20.1395 28.3933C19.8993 28.2412 19.7165 28.0664 19.5149 27.8676L19.5744 27.4598C21.8324 28.6216 24.1365 29.3838 26.7151 29.2795C29.9727 29.1541 33.0332 27.6869 35.1709 25.2257C37.4638 22.5618 38.1191 19.6432 37.802 16.2354Z" fill="#3B4244"/>
<path d="M24.9524 11.1096C27.1349 10.9059 29.316 11.1203 31.037 12.6171C32.5571 13.9396 33.2603 15.8791 33.3212 17.8593C33.3774 19.6947 32.8801 21.5697 31.5803 22.9134C30.3036 24.2329 28.8624 24.6269 27.0814 24.7049C25.168 24.4303 23.1231 24.1167 21.4372 23.1178C20.0202 22.2782 18.962 20.9845 18.5785 19.3671C18.2005 17.7731 18.5518 16.1097 19.4115 14.7311C20.7268 12.6224 22.6321 11.6695 24.9524 11.1096Z" fill="#3B4244"/>
<path d="M21.4177 17.7767C21.4151 16.6531 21.4615 15.6151 22.1095 14.6574C23.1464 13.1256 24.8984 12.8157 26.5906 12.5474C26.8081 12.6346 27.0263 12.7203 27.241 12.8148C28.5457 13.3876 29.4267 13.8374 29.9543 15.2066C30.4256 17.1381 30.9441 18.9031 29.7509 20.7121C29.0759 21.7356 27.9835 22.3124 26.7902 22.487C25.3524 22.6998 23.8894 22.322 22.7339 21.4398C22.0486 20.9061 21.4418 20.0155 21.3429 19.1347C21.2878 18.6425 21.3401 18.2593 21.4177 17.7767Z" fill="#0B1316"/>
<path d="M21.42 17.7792C21.4174 16.6556 21.4638 15.6175 22.1119 14.6599C23.1488 13.128 24.9007 12.8182 26.5929 12.5498C26.8104 12.637 27.0286 12.7228 27.2433 12.8172C28.5481 13.39 29.4291 13.8398 29.9567 15.209C29.562 15.0225 29.168 14.8394 28.7789 14.6411C27.5196 13.9996 25.7845 13.5672 24.3884 13.995C23.2772 14.3353 22.522 15.2435 22.0442 16.2621C21.8114 16.758 21.6115 17.2661 21.42 17.7792Z" fill="#262829"/>
<path d="M28.6943 271.535C30.4277 271.181 32.3034 271.819 33.7402 272.812C35.2125 273.832 35.891 274.741 36.2993 276.457C37.2155 278.395 37.7815 280.144 37.7048 282.328C37.587 285.677 36.3082 289.486 33.7652 291.743C31.3123 293.918 27.6879 294.677 24.4699 294.48C21.4043 294.29 18.8074 293.058 16.7941 290.716C13.7379 287.163 13.9533 283.233 14.2472 278.866C15.6349 276.944 16.676 275.001 18.6112 273.515C21.507 271.296 25.1998 271.008 28.6943 271.535Z" fill="#0B1316"/>
<path d="M25.6362 275.503C27.2663 275.292 28.9566 275.498 30.4339 276.246C31.7721 276.914 32.7818 278.095 33.2318 279.522C33.8989 281.646 33.5609 284.358 32.4474 286.277C31.1939 288.436 29.3846 289.394 27.0802 290.055C25.2746 290.151 23.7544 289.884 22.1996 288.916C20.4682 287.847 19.2652 286.101 18.8841 284.104C18.5389 282.215 18.9781 280.268 20.1 278.711C21.4503 276.822 23.3998 275.885 25.6362 275.503Z" fill="#3B4244"/>
<path d="M25.6382 277.35C25.9715 277.331 25.9752 277.324 26.3622 277.343C27.6993 277.409 29.0995 277.894 29.9995 278.92C31.3973 280.512 31.2852 282.424 31.1767 284.388C29.7114 286.446 28.4315 287.51 26.0055 288.356C25.4057 288.387 24.764 288.445 24.1689 288.352C22.2416 288.047 21.1398 286.238 20.1423 284.756C20.0819 283.184 20.1545 281.81 20.9591 280.416C22.015 278.585 23.7074 277.915 25.6382 277.35Z" fill="#0B1316"/>
<path d="M418.97 271.399C425.357 270.197 431.505 274.411 432.688 280.8C433.869 287.189 429.639 293.325 423.248 294.49C416.88 295.65 410.774 291.441 409.595 285.077C408.416 278.714 412.609 272.594 418.97 271.399Z" fill="#0B1316"/>
<path d="M414.517 286.463C413.526 284.93 413.141 283.043 413.533 281.234C413.976 279.199 415.387 277.575 417.144 276.523C419.041 275.367 421.33 275.049 423.468 275.646C425.219 276.12 426.883 277.13 427.806 278.733C428.777 280.416 428.854 282.748 428.308 284.585C427.734 286.514 426.198 288.174 424.41 289.062C422.849 289.838 420.958 289.983 419.324 289.352C418.18 288.912 417.114 288.183 416.505 287.105C416.336 286.999 416.134 286.934 415.952 286.859C415.919 287.248 415.848 287.538 415.708 287.904C415.138 287.609 414.852 286.988 414.517 286.463Z" fill="#3B4244"/>
<path d="M417.227 279.218C418.309 278.107 419.484 277.263 421.101 277.273C422.383 277.28 423.571 277.896 424.41 278.85C425.446 280.029 425.866 281.648 425.69 283.198C425.549 284.447 425.006 285.523 424.007 286.298C422.692 287.323 421.211 287.205 419.636 287.212C418.391 286.601 417.405 285.86 416.788 284.569C415.919 282.741 416.556 280.966 417.227 279.218Z" fill="#0B1316"/>
<path d="M417.224 279.22C416.554 280.969 415.916 282.743 416.786 284.571C417.402 285.862 418.389 286.603 419.634 287.215C418.565 287.391 417.524 286.601 416.498 286.317L416.507 287.102C416.338 286.997 416.137 286.931 415.954 286.856C415.921 287.245 415.851 287.536 415.71 287.901C415.141 287.606 414.855 286.985 414.52 286.46C415.323 285.002 414.726 283.317 415.164 281.695C415.457 280.603 416.303 279.804 417.224 279.22Z" fill="#262829"/>
<path d="M420.149 6.86172C425.847 6.22141 431.092 10.0248 432.257 15.6379C433.42 21.2507 430.117 26.8265 424.637 28.5039C419.155 30.1811 413.298 27.4077 411.121 22.1045C408.946 16.8013 411.166 10.7134 416.245 8.05633C417.461 7.42024 418.785 7.015 420.149 6.86172Z" fill="#0B1316"/>
<path d="M414.299 17.6698C414.601 15.6009 415.309 13.8258 417.053 12.5468C418.68 11.3691 420.721 10.9202 422.692 11.3081C424.6 11.6726 426.564 12.7324 427.614 14.4136C428.467 15.7781 428.655 17.3698 428.221 18.9122C427.682 20.8392 426.135 22.8063 424.377 23.7668C422.912 24.5665 421.316 24.6492 419.694 24.4366C417.923 24.0262 416.055 22.2785 415.058 20.8071C414.414 19.8581 414.048 18.8126 414.299 17.6698Z" fill="#0B1316"/>
<path d="M414.297 17.6698C414.599 15.6009 415.307 13.8258 417.051 12.5468C418.677 11.3691 420.719 10.9202 422.69 11.3081C424.598 11.6726 426.562 12.7324 427.612 14.4136C428.465 15.7781 428.652 17.3698 428.219 18.9122C427.68 20.8392 426.133 22.8063 424.375 23.7668C422.91 24.5665 421.314 24.6492 419.692 24.4366L419.767 23.6395C420.85 23.3519 421.952 23.0791 422.861 22.3933C424.091 21.4671 425.104 19.9957 425.277 18.4418C425.446 16.8937 425.008 15.7087 424.091 14.4909C422.034 13.7681 420.438 13.4538 418.298 14.1227L417.721 13.7988C415.975 15.034 415.403 16.125 414.548 18.0382L414.297 17.6698Z" fill="#3B4244"/>
<path d="M417.721 13.7939C419.067 13.0566 420.702 12.4964 422.242 12.907C422.962 13.0985 423.527 13.4433 423.892 14.1035C423.963 14.2291 424.026 14.3585 424.091 14.486C422.034 13.7632 420.438 13.4489 418.298 14.1178L417.721 13.7939Z" fill="#262829"/>
<path d="M417.721 13.7964L418.298 14.1203C416.481 15.9972 416.045 17.087 416.088 19.7284C416.088 20.0022 416.097 20.2759 416.113 20.5492C416.866 21.861 417.606 23.1379 419.184 23.5337C419.404 23.589 419.528 23.6005 419.767 23.6371L419.692 24.4342C417.92 24.0238 416.052 22.2761 415.056 20.8047C414.412 19.8557 414.046 18.8101 414.297 17.6673L414.548 18.0358C415.403 16.1226 415.975 15.0315 417.721 13.7964Z" fill="#262829"/>
<path d="M14.4699 13.8587C14.4542 13.6817 14.416 13.3878 14.4441 13.2048C14.5634 12.429 15.2909 11.5604 15.7463 10.9163C18.1728 7.48367 19.9702 6.82789 24.0924 6.6664C30.3263 6.42195 36.5382 6.78804 42.7644 6.79062L101.943 6.73015L406.682 6.77281C408.475 6.75945 417.93 6.84407 418.991 6.18641C419.814 5.67547 420.36 5.60023 421.333 5.65555C422.043 5.69609 424.286 5.67078 424.694 6.13437C423.18 6.20234 421.422 6.035 420.147 6.86164C418.783 7.01492 417.459 7.42016 416.242 8.05625C413.041 8.0136 409.898 7.46375 406.708 7.39719C390.505 7.1525 374.303 7.06883 358.101 7.14594C350.706 7.16281 343.232 7.20664 335.84 7.38852C334.232 7.42789 332.701 7.95172 331.096 7.9311C327.646 7.8868 324.217 7.35781 320.758 7.31774C258.524 6.88649 196.288 6.84547 134.054 7.19445C129.94 7.21461 125.802 6.97508 121.678 6.9643C109.941 6.93336 98.2114 7.21578 86.4741 7.16117C74.3764 7.10492 62.2712 6.82719 50.1685 6.9936C43.6109 7.0836 37.1094 7.75602 30.5666 7.86805C26.2541 6.8668 22.7874 6.71164 18.8485 9.06852C16.722 10.3409 15.695 11.7399 14.4699 13.8587Z" fill="#3B4244"/>
<path d="M69.4551 256.31C69.66 256.059 69.9858 255.944 70.3026 256.005C70.6195 256.069 70.8761 256.301 70.9706 256.61C71.0648 256.919 70.9819 257.255 70.754 257.484C70.4243 257.815 69.8918 257.831 69.5447 257.517C69.1976 257.203 69.1579 256.671 69.4551 256.31Z" fill="#242D30"/>
<path d="M89.5928 232.512C89.7104 232.142 89.8377 231.776 89.9746 231.41C90.3013 230.564 90.7522 229.953 91.6157 229.61C92.7639 229.153 94.258 229.097 95.4869 229.055C104.776 228.722 114.095 228.905 123.389 228.912L167.323 228.921L305.854 228.919L335.322 228.917C340.204 228.917 345.454 228.532 350.287 229.036C351.688 229.181 352.773 229.538 354.044 230.107C354.51 230.412 354.85 230.644 355.211 231.078L356.153 232.406L355.448 232.533C355.124 233.26 355.164 233.745 355.241 234.528L354.498 235.61C357.543 248.325 360.763 261.014 363.606 273.776C364.827 279.256 366.447 284.956 366.965 290.538C367.162 292.662 367.005 294.464 366.426 296.529C360.273 297.033 353.929 296.731 347.755 296.728L314.88 296.714L158.78 296.726L107.633 296.731C99.0854 296.726 90.4089 296.398 81.8788 296.719C81.1047 296.747 80.6111 296.986 79.9319 297.352C79.3762 297.652 78.8345 297.659 78.2347 297.436C77.8785 297.303 77.8907 297.251 77.6017 296.967C77.009 296.29 76.5346 295.542 76.0405 294.792C76.858 287.578 79.0462 280.2 80.605 273.106L89.5928 232.512Z" fill="#262829"/>
<path d="M89.5881 232.514C89.7058 232.144 89.8331 231.778 89.9699 231.412C90.2966 230.566 90.7476 229.954 91.611 229.612C92.7592 229.155 94.2534 229.099 95.4822 229.057C104.771 228.724 114.09 228.907 123.384 228.914L167.318 228.923L305.849 228.921L335.317 228.919C340.199 228.919 345.449 228.534 350.282 229.038C351.684 229.183 352.769 229.54 354.039 230.109L353.929 230.512C353.845 230.543 353.755 230.566 353.676 230.606C352.633 231.147 352.173 232.483 351.266 233.14C348.039 232.083 332.017 232.715 327.489 232.715L280.909 232.713L162.695 232.72C141.696 232.713 120.622 232.35 99.6295 232.788C97.6509 232.828 95.7801 232.983 93.9845 233.918C93.8088 234.009 93.6351 234.105 93.4635 234.206L93.1141 234.15L93.2299 234.002C92.0303 233.447 90.8594 232.891 89.5881 232.514Z" fill="#5E5E5E"/>
<path d="M89.5904 232.514C90.8616 232.892 92.0325 233.447 93.2321 234.002L93.1163 234.15L93.4657 234.206C93.1278 234.727 92.8039 235.259 92.6185 235.856C92.0665 237.631 91.83 239.604 91.4642 241.43C90.9003 244.167 90.3017 246.898 89.6684 249.619C86.787 262.399 84.1221 275.21 81.1142 287.96C80.689 289.763 80.8022 293.229 80.2875 294.551C79.9343 295.456 78.6666 296.356 77.9161 296.92L77.5993 296.97C77.0065 296.292 76.5321 295.545 76.0381 294.795C76.8556 287.581 79.0437 280.202 80.6025 273.108L89.5904 232.514Z" fill="#3B4244"/>
<path d="M354.037 230.112C354.503 230.417 354.843 230.649 355.204 231.082C354.445 232.32 353.943 233.445 353.488 234.825C352.785 234.305 351.859 233.77 351.264 233.142C352.171 232.486 352.631 231.15 353.674 230.609C353.753 230.569 353.842 230.545 353.927 230.515L354.037 230.112Z" fill="#3B4244"/>
<path d="M327.203 268.301C333.991 267.391 340.239 272.13 341.198 278.909C342.156 285.689 337.466 291.973 330.693 292.98C323.849 294 317.486 289.249 316.518 282.398C315.548 275.548 320.345 269.219 327.203 268.301Z" fill="#0B1316"/>
<path d="M327.296 273.161C331.554 272.291 335.71 275.04 336.577 279.297C337.447 283.555 334.697 287.711 330.439 288.578C326.183 289.445 322.027 286.698 321.16 282.442C320.293 278.183 323.04 274.03 327.296 273.161Z" fill="#F6F3EA"/>
<path d="M283.321 264.007C285.838 263.791 288.508 264.53 290.678 265.812C293.287 267.356 295.251 269.855 295.942 272.824C296.645 275.845 295.818 279.148 294.112 281.698C292.108 284.695 289.33 286.083 285.887 286.788C283.108 286.997 280.417 286.446 278.064 284.897C275.338 283.101 273.873 280.498 273.198 277.366C272.598 274.594 272.523 271.069 274.194 268.659C276.297 265.626 279.913 264.665 283.321 264.007Z" fill="#0B1316"/>
<path d="M283.751 268.179C285.555 267.82 287.564 267.961 289.155 268.962C290.594 269.871 291.544 271.334 291.9 272.988C292.331 275.053 291.919 277.205 290.751 278.963C289.758 280.442 288.251 281.482 286.476 281.756C285.553 281.899 284.791 281.747 283.896 281.541L283.521 281.456L283.296 281.405C282.635 281.25 282.014 281.086 281.426 280.737C279.836 279.792 278.651 278.346 278.208 276.539C277.781 274.788 278.001 272.796 278.967 271.256C280.083 269.478 281.782 268.678 283.751 268.179Z" fill="#F6F3EA"/>
<path d="M282.515 269.587C284.319 269.229 286.328 269.369 287.919 270.37C289.358 271.279 290.308 272.742 290.664 274.397C291.095 276.461 290.683 278.613 289.516 280.371C288.522 281.85 287.015 282.89 285.241 283.165C284.317 283.308 283.555 283.155 282.66 282.949L282.285 282.865L282.06 282.813C283.288 282.562 284.619 282.276 285.759 281.742C287.387 280.98 288.878 279.738 289.48 277.994C289.98 276.541 289.762 274.959 289.023 273.63C287.577 271.036 285.147 270.361 282.515 269.587Z" fill="#92938F"/>
<path d="M151.446 279.696C150.317 276.354 150.607 272.89 152.167 269.723C153.059 267.912 155.036 265.244 157.007 264.534C159.758 263.545 164.972 264.464 167.487 265.755C169.961 267.016 171.826 269.215 172.665 271.861C173.62 274.912 173.449 278.583 171.949 281.421C170.719 283.746 168.541 285.621 165.993 286.334C162.937 287.189 159.292 286.774 156.567 285.157C155.62 284.594 154.831 283.924 154.067 283.137C153.96 283.16 153.855 283.193 153.746 283.207C153.231 283.266 152.799 283.125 152.425 282.757C151.609 281.955 151.408 280.791 151.446 279.696Z" fill="#0B1316"/>
<path d="M151.443 279.698C152.372 280.809 153.16 282.014 154.065 283.139C153.958 283.162 153.852 283.195 153.743 283.209C153.229 283.268 152.796 283.127 152.422 282.759C151.606 281.958 151.406 280.793 151.443 279.698Z" fill="#242D30"/>
<path d="M161.255 268.024C162.904 267.933 164.335 268.066 165.748 269.006C168.043 270.53 168.66 273.127 169.144 275.658C168.593 277.188 167.995 278.7 166.838 279.884C165.226 281.534 163.217 281.801 161.031 281.829C159.193 281.353 157.858 280.139 156.585 278.775L156.407 278.58L156.936 279.448C156.151 278.902 155.56 277.945 155.269 277.045C154.793 275.573 154.964 273.933 155.665 272.564C156.722 270.499 159.082 268.704 161.255 268.024Z" fill="#F6F3EA"/>
<path d="M218.017 260.77C217.605 260.365 216.958 260.041 216.487 259.673C214.263 257.946 212.538 256.005 211.97 253.146C211.403 250.287 212.2 247.108 213.846 244.727C215.499 242.339 218.28 240.874 221.12 240.459C223.968 240.042 227.003 240.621 229.305 242.407C231.327 243.977 233.186 247.036 233.479 249.64C233.516 249.989 233.528 250.188 233.643 250.537C233.671 250.624 233.709 250.708 233.741 250.795L234.138 250.737C235.049 252.757 235.038 254.641 234.187 256.715C233.156 259.235 231.191 261.255 228.653 262.247C225.836 263.346 221.784 263.315 219.023 262.019C218.554 261.799 218.17 261.534 217.759 261.22L217.764 260.925L218.017 260.77Z" fill="#0B1316"/>
<path d="M233.741 250.795L234.137 250.737C235.049 252.757 235.037 254.642 234.187 256.716C233.155 259.235 231.191 261.256 228.653 262.247C225.836 263.346 221.783 263.316 219.023 262.02C218.554 261.799 218.169 261.534 217.759 261.22L217.764 260.925L218.017 260.77C219.564 261.527 221.033 261.989 222.77 262.006C225.646 262.029 228.768 260.775 230.805 258.738C232.898 256.643 233.8 253.699 233.741 250.795Z" fill="#3B4244"/>
<path d="M215.836 249.474C215.934 249.291 216.034 249.108 216.129 248.925C216.305 248.578 216.466 248.229 216.657 247.889C217.581 246.244 219.365 244.887 221.202 244.442C223.574 243.867 225.726 244.777 227.699 246.042C228.182 246.312 228.531 246.495 228.705 247.057C228.995 248.002 229.084 249.019 229.359 249.98C229.769 251.426 229.67 252.851 228.904 254.168C228.013 255.701 226.338 256.856 224.62 257.248C222.623 257.702 220.563 257.084 218.88 255.989C217.246 254.927 216.159 253.331 215.785 251.407C215.66 250.76 215.739 250.12 215.836 249.474Z" fill="#242D30"/>
<path d="M218.835 248.407C221.191 247.341 223.605 246.385 226.171 247.416C227.387 247.903 228.133 248.66 228.948 249.659C227.69 252.214 226.649 254.391 224.622 256.451C223.354 256.491 222.13 256.566 220.872 256.744C220.241 255.945 219.149 253.852 218.409 253.374C218.357 253.228 218.303 253.083 218.254 252.935C217.677 251.229 218.041 249.964 218.835 248.407Z" fill="#0B1316"/>
<path d="M215.832 249.471C215.929 249.288 216.029 249.106 216.124 248.923C216.3 248.576 216.461 248.227 216.652 247.887C217.576 246.241 219.36 244.884 221.198 244.439C223.569 243.865 225.721 244.774 227.694 246.04C227.547 246.056 227.399 246.075 227.251 246.089C224.701 246.326 221.603 245.056 219.543 247.291C219.203 247.657 219.039 247.966 218.83 248.407C218.036 249.963 217.673 251.229 218.249 252.935C218.298 253.083 218.352 253.228 218.404 253.373C218.019 253.519 218.23 253.502 217.766 253.338C216.823 252.223 215.84 250.99 215.832 249.471Z" fill="#3B4244"/>
<path d="M116.735 273.956C120.978 272.867 125.303 275.414 126.406 279.654C127.51 283.892 124.978 288.225 120.743 289.346C116.486 290.471 112.126 287.92 111.017 283.662C109.908 279.401 112.471 275.051 116.735 273.956Z" fill="#F6F3EA"/>
<path d="M129.801 278.124C130.045 278.149 130.56 278.163 130.806 278.267C131.313 278.48 131.456 279.007 131.591 279.492C132.473 282.68 131.503 286.62 129.783 289.378C127.945 292.329 124.879 294.549 121.479 295.303C118.498 295.964 115.59 295.484 113.014 293.864C111.961 293.194 111.068 292.425 110.142 291.595C112.46 292.678 114.724 293.552 117.321 293.613C120.347 293.684 122.937 292.758 125.129 290.658C128.767 287.17 129.673 282.987 129.801 278.124Z" fill="#3B4244"/>
<path d="M6.14811 195.469C6.39481 195.72 6.40203 195.966 6.43057 196.327C6.62529 198.785 6.43592 201.408 6.43545 203.887L6.43568 219.497L6.46943 266.538C6.46803 267.124 6.57022 267.809 6.17864 268.256L5.65983 267.78C5.24539 267.363 4.509 266.705 4.39179 266.105C3.99837 264.091 4.22796 261.548 4.22804 259.486L4.2439 246.579L4.18969 197.655L6.14811 195.469Z" fill="#262829"/>
<path d="M440.767 197.278C441.362 197.724 441.866 198.434 442.356 199.001C442.565 211.629 442.345 224.297 442.349 236.928C442.349 244.983 442.773 253.617 442.246 261.612C442.152 263.039 441.918 264.185 441.355 265.514C441.152 265.868 441.29 265.683 440.903 266.035C440.345 264.91 440.545 204.467 440.767 197.278Z" fill="#262829"/>
<path d="M316.061 116.183C316.177 116.167 316.293 116.151 316.41 116.137C320.685 115.633 326.157 116.489 329.594 119.166C328.856 119.338 328.04 119.489 327.345 119.788C326.391 120.198 325.587 121.284 325.252 122.24C324.878 123.307 324.983 124.47 325.495 125.472C326.353 127.147 327.655 127.661 329.36 128.18C329.968 128.015 330.611 127.862 331.181 127.59C332.604 126.91 333.367 125.602 333.818 124.148C333.973 123.651 334.084 123.261 334.374 122.821C334.95 123.003 335.174 123.293 335.567 123.747C338.024 126.579 342.267 133.479 342.056 137.171C341.473 137.819 338.218 136.705 336.661 137.313C335.828 137.638 335.276 138.263 334.979 139.098C334.533 140.351 334.472 142.28 335.106 143.486C336.539 146.214 339.613 144.381 341.726 145.103C342.219 145.718 342.359 146.105 342.27 146.902C341.779 151.312 337.734 156.885 334.337 159.608C333.82 158.427 333.242 157.049 332.199 156.229C331.219 155.458 330.008 155.07 328.763 155.241C327.538 155.408 326.383 156.065 325.697 157.105C325.112 157.991 324.926 159.083 325.185 160.112C325.676 162.1 327.079 162.868 328.717 163.825C325.331 165.716 321.892 166.365 318.049 166.48C314.765 166.492 311.083 165.472 308.217 163.883C309.166 163.077 310.21 162.163 310.796 161.045C311.3 160.084 311.519 158.935 311.173 157.885C310.839 156.873 310.053 156.088 309.085 155.666C307.939 155.166 306.673 155.215 305.533 155.7C303.646 156.503 302.275 158.197 301.552 160.07C300.879 159.535 300.24 158.959 299.638 158.345C295.804 154.415 293.262 149.26 293.314 143.723C294.456 144.433 295.53 145.048 296.785 145.547C297.209 145.424 297.63 145.289 298.048 145.144C299.297 144.701 300.346 143.817 300.881 142.586C301.3 141.619 301.306 140.523 300.896 139.551C300.46 138.527 299.62 137.727 298.575 137.343C296.513 136.578 294.821 137.478 293 138.37C293.46 133.956 295.368 129.862 297.967 126.298C298.876 125.052 300.448 122.639 302.103 122.485C302.21 122.475 302.339 122.42 302.424 122.485C302.608 122.622 303.234 126.111 304.683 127.267C305.572 127.976 306.539 128.081 307.634 127.894C308.854 127.685 310.083 127.206 310.765 126.115C311.34 125.197 311.407 124.048 311.173 123.01C310.715 120.977 309.608 119.926 307.919 118.843C310.55 117.209 313.012 116.596 316.061 116.183Z" fill="#111111" class="reel-right"/>
<path d="M53.625 59.1797H50.5703V58.2422C50.5703 57.8047 50.5312 57.526 50.4531 57.4062C50.375 57.2865 50.2448 57.2266 50.0625 57.2266C49.8646 57.2266 49.7135 57.3073 49.6094 57.4688C49.5104 57.6302 49.4609 57.875 49.4609 58.2031C49.4609 58.625 49.5182 58.9427 49.6328 59.1562C49.7422 59.3698 50.0521 59.6276 50.5625 59.9297C52.026 60.7995 52.9479 61.513 53.3281 62.0703C53.7083 62.6276 53.8984 63.526 53.8984 64.7656C53.8984 65.6667 53.7917 66.3307 53.5781 66.7578C53.3698 67.1849 52.9635 67.5443 52.3594 67.8359C51.7552 68.1224 51.0521 68.2656 50.25 68.2656C49.3698 68.2656 48.6172 68.099 47.9922 67.7656C47.3724 67.4323 46.9661 67.0078 46.7734 66.4922C46.5807 65.9766 46.4844 65.2448 46.4844 64.2969V63.4688H49.5391V65.0078C49.5391 65.4818 49.5807 65.7865 49.6641 65.9219C49.7526 66.0573 49.9062 66.125 50.125 66.125C50.3438 66.125 50.5052 66.0391 50.6094 65.8672C50.7188 65.6953 50.7734 65.4401 50.7734 65.1016C50.7734 64.3568 50.6719 63.8698 50.4688 63.6406C50.2604 63.4115 49.7474 63.0286 48.9297 62.4922C48.112 61.9505 47.5703 61.5573 47.3047 61.3125C47.0391 61.0677 46.8177 60.7292 46.6406 60.2969C46.4688 59.8646 46.3828 59.3125 46.3828 58.6406C46.3828 57.6719 46.5052 56.9635 46.75 56.5156C47 56.0677 47.401 55.7188 47.9531 55.4688C48.5052 55.2135 49.1719 55.0859 49.9531 55.0859C50.8073 55.0859 51.5339 55.224 52.1328 55.5C52.737 55.776 53.1354 56.125 53.3281 56.5469C53.526 56.9635 53.625 57.6745 53.625 58.6797V59.1797ZM58.2266 55.3516V68H54.9375V55.3516H58.2266ZM59.5469 55.3516H62.0078C63.5964 55.3516 64.6693 55.4245 65.2266 55.5703C65.7891 55.7161 66.2161 55.9557 66.5078 56.2891C66.7995 56.6224 66.9818 56.9948 67.0547 57.4062C67.1276 57.8125 67.1641 58.6146 67.1641 59.8125V64.2422C67.1641 65.3776 67.1094 66.138 67 66.5234C66.8958 66.9036 66.7109 67.2031 66.4453 67.4219C66.1797 67.6354 65.8516 67.7865 65.4609 67.875C65.0703 67.9583 64.4818 68 63.6953 68H59.5469V55.3516ZM62.8359 57.5156V65.8359C63.3099 65.8359 63.6016 65.7422 63.7109 65.5547C63.8203 65.362 63.875 64.8438 63.875 64V59.0859C63.875 58.513 63.8568 58.1458 63.8203 57.9844C63.7839 57.8229 63.7005 57.7057 63.5703 57.6328C63.4401 57.5547 63.1953 57.5156 62.8359 57.5156ZM68.3906 55.3516H73.875V57.8828H71.6797V60.2812H73.7344V62.6875H71.6797V65.4688H74.0938V68H68.3906V55.3516Z" fill="black"/>
<text x="84" y="64" text-anchor="middle" dominant-baseline="middle" font-family="Arial, sans-serif" font-size="20" font-weight="bold" fill="black">A</text>
<path d="M53.3672 197.844V200H46.4219V198.195C48.4792 194.831 49.7005 192.75 50.0859 191.953C50.4766 191.151 50.6719 190.526 50.6719 190.078C50.6719 189.734 50.612 189.479 50.4922 189.312C50.3776 189.141 50.2005 189.055 49.9609 189.055C49.7214 189.055 49.5417 189.148 49.4219 189.336C49.3073 189.523 49.25 189.896 49.25 190.453V191.656H46.4219V191.195C46.4219 190.487 46.4583 189.93 46.5312 189.523C46.6042 189.112 46.7839 188.708 47.0703 188.312C47.3568 187.917 47.7292 187.617 48.1875 187.414C48.6458 187.211 49.1953 187.109 49.8359 187.109C51.0911 187.109 52.0391 187.422 52.6797 188.047C53.3255 188.667 53.6484 189.453 53.6484 190.406C53.6484 191.13 53.4661 191.896 53.1016 192.703C52.7422 193.51 51.6771 195.224 49.9062 197.844H53.3672ZM60.8438 189.633L59.5859 194.586L61.1094 200H58.0391C57.737 198.635 57.5078 197.461 57.3516 196.477C57.1432 197.706 56.9167 198.88 56.6719 200H54.0312L55.3906 194.586L54.0312 189.633H56.6719C57.0938 191.747 57.3203 192.948 57.3516 193.234C57.6536 191.469 57.8828 190.268 58.0391 189.633H60.8438Z" fill="black"/>
<text x="86" y="196" text-anchor="middle" dominant-baseline="middle" font-family="Arial, sans-serif" font-size="20" font-weight="bold" fill="black">5min</text>
<path d="M319.844 62.9609H324.578C324.578 63.8438 324.59 64.4023 324.613 64.6367C324.637 64.8633 324.73 65.0547 324.895 65.2109C325.066 65.3672 325.297 65.4453 325.586 65.4453C325.828 65.4453 326.027 65.3711 326.184 65.2227C326.34 65.0742 326.426 64.8828 326.441 64.6484C326.465 64.4141 326.477 63.9414 326.477 63.2305V60.207C326.242 60.7148 325.891 61.0977 325.422 61.3555C324.953 61.6055 324.371 61.7305 323.676 61.7305C322.809 61.7305 322.043 61.4961 321.379 61.0273C320.715 60.5586 320.293 59.9961 320.113 59.3398C319.934 58.6836 319.844 57.7969 319.844 56.6797V55.168C319.844 53.8398 319.895 52.8516 319.996 52.2031C320.105 51.5547 320.379 50.957 320.816 50.4102C321.254 49.8555 321.859 49.4258 322.633 49.1211C323.406 48.8164 324.305 48.6641 325.328 48.6641C326.594 48.6641 327.633 48.8398 328.445 49.1914C329.258 49.543 329.887 50.0508 330.332 50.7148C330.777 51.3711 331.035 52.0625 331.105 52.7891C331.176 53.5156 331.211 54.9219 331.211 57.0078V59.6445C331.211 61.9023 331.18 63.4141 331.117 64.1797C331.055 64.9375 330.781 65.6562 330.297 66.3359C329.82 67.0156 329.172 67.5273 328.352 67.8711C327.531 68.207 326.582 68.375 325.504 68.375C324.168 68.375 323.074 68.1602 322.223 67.7305C321.379 67.3008 320.77 66.6953 320.395 65.9141C320.027 65.1328 319.844 64.1484 319.844 62.9609ZM324.578 57.043C324.578 57.8398 324.68 58.332 324.883 58.5195C325.094 58.707 325.309 58.8008 325.527 58.8008C325.855 58.8008 326.094 58.6836 326.242 58.4492C326.398 58.207 326.477 57.7383 326.477 57.043V53.6094C326.477 52.7734 326.402 52.2266 326.254 51.9688C326.113 51.7109 325.875 51.582 325.539 51.582C325.336 51.582 325.125 51.6836 324.906 51.8867C324.688 52.082 324.578 52.6172 324.578 53.4922V57.043ZM344.02 55.4492V61.7773C344.02 63.2148 343.941 64.2617 343.785 64.918C343.629 65.5742 343.305 66.1875 342.812 66.7578C342.32 67.3281 341.727 67.7383 341.031 67.9883C340.336 68.2383 339.559 68.3633 338.699 68.3633C337.566 68.3633 336.625 68.2344 335.875 67.9766C335.125 67.7109 334.527 67.3008 334.082 66.7461C333.637 66.1914 333.32 65.6094 333.133 65C332.945 64.3828 332.852 63.4062 332.852 62.0703V55.4492C332.852 53.707 333 52.4023 333.297 51.5352C333.602 50.668 334.199 49.9727 335.09 49.4492C335.988 48.9258 337.074 48.6641 338.348 48.6641C339.387 48.6641 340.316 48.8477 341.137 49.2148C341.957 49.5742 342.57 50.0156 342.977 50.5391C343.383 51.0625 343.656 51.6523 343.797 52.3086C343.945 52.9648 344.02 54.0117 344.02 55.4492ZM339.285 53.8555C339.285 52.8477 339.234 52.2188 339.133 51.9688C339.039 51.7109 338.812 51.582 338.453 51.582C338.102 51.582 337.867 51.7188 337.75 51.9922C337.641 52.2578 337.586 52.8789 337.586 53.8555V63.1133C337.586 64.2148 337.637 64.8789 337.738 65.1055C337.848 65.332 338.078 65.4453 338.43 65.4453C338.781 65.4453 339.012 65.3125 339.121 65.0469C339.23 64.7812 339.285 64.1836 339.285 63.2539V53.8555ZM355.387 57.418H351.191V56.5742C351.191 55.8555 351.148 55.4023 351.062 55.2148C350.984 55.0195 350.781 54.9219 350.453 54.9219C350.188 54.9219 349.988 55.0117 349.855 55.1914C349.723 55.3633 349.656 55.625 349.656 55.9766C349.656 56.4531 349.688 56.8047 349.75 57.0312C349.82 57.25 350.02 57.4922 350.348 57.7578C350.684 58.0234 351.367 58.4102 352.398 58.918C353.773 59.5898 354.676 60.2227 355.105 60.8164C355.535 61.4102 355.75 62.2734 355.75 63.4062C355.75 64.6719 355.586 65.6289 355.258 66.2773C354.93 66.918 354.379 67.4141 353.605 67.7656C352.84 68.1094 351.914 68.2812 350.828 68.2812C349.625 68.2812 348.594 68.0938 347.734 67.7188C346.883 67.3438 346.297 66.8359 345.977 66.1953C345.656 65.5547 345.496 64.5859 345.496 63.2891V62.5391H349.691V63.5234C349.691 64.3594 349.742 64.9023 349.844 65.1523C349.953 65.4023 350.164 65.5273 350.477 65.5273C350.812 65.5273 351.047 65.4453 351.18 65.2812C351.312 65.1094 351.379 64.7539 351.379 64.2148C351.379 63.4727 351.293 63.0078 351.121 62.8203C350.941 62.6328 350.023 62.0781 348.367 61.1562C346.977 60.375 346.129 59.668 345.824 59.0352C345.52 58.3945 345.367 57.6367 345.367 56.7617C345.367 55.5195 345.531 54.6055 345.859 54.0195C346.188 53.4258 346.742 52.9688 347.523 52.6484C348.312 52.3281 349.227 52.168 350.266 52.168C351.297 52.168 352.172 52.3008 352.891 52.5664C353.617 52.8242 354.172 53.168 354.555 53.5977C354.945 54.0273 355.18 54.4258 355.258 54.793C355.344 55.1602 355.387 55.7344 355.387 56.5156V57.418ZM361.398 49.0273H364.891C367.219 49.0273 368.793 49.1172 369.613 49.2969C370.441 49.4766 371.113 49.9375 371.629 50.6797C372.152 51.4141 372.414 52.5898 372.414 54.207C372.414 55.6836 372.23 56.6758 371.863 57.1836C371.496 57.6914 370.773 57.9961 369.695 58.0977C370.672 58.3398 371.328 58.6641 371.664 59.0703C372 59.4766 372.207 59.8516 372.285 60.1953C372.371 60.5312 372.414 61.4648 372.414 62.9961V68H367.832V61.6953C367.832 60.6797 367.75 60.0508 367.586 59.8086C367.43 59.5664 367.012 59.4453 366.332 59.4453V68H361.398V49.0273ZM366.332 52.2734V56.4922C366.887 56.4922 367.273 56.418 367.492 56.2695C367.719 56.1133 367.832 55.6172 367.832 54.7812V53.7383C367.832 53.1367 367.723 52.7422 367.504 52.5547C367.293 52.3672 366.902 52.2734 366.332 52.2734ZM386.852 60.793V63.9922L385.516 64.8359L387.18 68H382.809L382.234 66.9453C380.766 67.9141 379.375 68.3984 378.062 68.3984C376.688 68.3984 375.629 67.9414 374.887 67.0273C374.145 66.1133 373.773 65.0117 373.773 63.7227C373.773 62.6914 373.992 61.8828 374.43 61.2969C374.867 60.7109 375.523 60.2344 376.398 59.8672C375.148 58.9688 374.523 57.7539 374.523 56.2227C374.523 54.9023 374.969 53.8398 375.859 53.0352C376.75 52.2305 377.977 51.8281 379.539 51.8281C380.945 51.8281 382.051 52.2227 382.855 53.0117C383.668 53.8008 384.074 54.8047 384.074 56.0234C384.074 57.3047 383.582 58.4414 382.598 59.4336L384.273 62.457L386.852 60.793ZM379.551 57.4648C380.082 56.7695 380.348 56.1055 380.348 55.4727C380.348 55.1992 380.27 54.9492 380.113 54.7227C379.957 54.4961 379.738 54.3828 379.457 54.3828C379.199 54.3828 379.004 54.4688 378.871 54.6406C378.738 54.8125 378.672 55.0742 378.672 55.4258C378.672 56.1602 378.965 56.8398 379.551 57.4648ZM380.617 64.8008L379.082 62.2461C378.496 62.7773 378.203 63.3516 378.203 63.9688C378.203 64.4141 378.293 64.75 378.473 64.9766C378.66 65.1953 378.934 65.3047 379.293 65.3047C379.676 65.3047 380.117 65.1367 380.617 64.8008ZM388.164 49.0273H393.086C394.641 49.0273 395.816 49.1484 396.613 49.3906C397.418 49.6328 398.066 50.125 398.559 50.8672C399.051 51.6016 399.297 52.7891 399.297 54.4297C399.297 55.5391 399.121 56.3125 398.77 56.75C398.426 57.1875 397.742 57.5234 396.719 57.7578C397.859 58.0156 398.633 58.4453 399.039 59.0469C399.445 59.6406 399.648 60.5547 399.648 61.7891V63.5469C399.648 64.8281 399.5 65.7773 399.203 66.3945C398.914 67.0117 398.449 67.4336 397.809 67.6602C397.168 67.8867 395.855 68 393.871 68H388.164V49.0273ZM393.098 52.2734V56.4922C393.309 56.4844 393.473 56.4805 393.59 56.4805C394.074 56.4805 394.383 56.3633 394.516 56.1289C394.648 55.8867 394.715 55.2031 394.715 54.0781C394.715 53.4844 394.66 53.0703 394.551 52.8359C394.441 52.5938 394.297 52.4414 394.117 52.3789C393.945 52.3164 393.605 52.2812 393.098 52.2734ZM393.098 59.4453V64.7539C393.793 64.7305 394.234 64.6211 394.422 64.4258C394.617 64.2305 394.715 63.75 394.715 62.9844V61.2148C394.715 60.4023 394.629 59.9102 394.457 59.7383C394.285 59.5664 393.832 59.4688 393.098 59.4453Z" fill="black"/>
<defs>
<linearGradient id="paint0_linear_154_179" x1="197.456" y1="139.492" x2="212.648" y2="142.787" gradientUnits="userSpaceOnUse">
<stop stop-color="#07080B"/>
<stop offset="1" stop-color="#35271C"/>
</linearGradient>
<linearGradient id="paint1_linear_154_179" x1="244.014" y1="112.002" x2="285.564" y2="154.925" gradientUnits="userSpaceOnUse">
<stop stop-color="#0F0F0F"/>
<stop offset="1" stop-color="#36281D"/>
</linearGradient>
<linearGradient id="paint2_linear_154_179" x1="217.158" y1="149.045" x2="216.862" y2="100.041" gradientUnits="userSpaceOnUse">
<stop stop-color="#353D40"/>
<stop offset="1" stop-color="#636161"/>
</linearGradient>
</defs>
</svg>
